<svg xmlns="http://www.w3.org/2000/svg" viewBox="0 0 1600 1030" role="img" aria-labelledby="title desc">
<title id="title">Fibonacci modulo 25 light visualizer preview</title>
<desc id="desc">A light monochrome Fibonacci modulo 25 visualization with 25 points on a circle, connecting paths, an active black point, a subtle Aedrian Ponce signature field, and playback status.</desc>
<rect width="1600" height="1030" fill="#fbfbfa"/>
<text x="800" y="82" text-anchor="middle" fill="#111" font-family="Inter,Arial,sans-serif" font-size="22" font-weight="700" letter-spacing="8">FIBONACCI</text>
<text x="800" y="505" text-anchor="middle" fill="#e9e9e7" opacity=".72" font-family="Inter,Arial,sans-serif" font-size="96" font-weight="700" letter-spacing="18">AEDRIAN PONCE</text>
<circle cx="800" cy="420" r="270" fill="none" stroke="#d8d8d6" stroke-width="1.5"/>
<g stroke="#d1d1cf" stroke-width="1.15" opacity=".58"><line x1="800.0" y1="150.0" x2="867.1" y2="158.5"/>
<line x1="867.1" y1="158.5" x2="867.1" y2="158.5"/>
<line x1="867.1" y1="158.5" x2="930.1" y2="183.4"/>
<line x1="930.1" y1="183.4" x2="984.8" y2="223.2"/>
<line x1="984.8" y1="223.2" x2="1056.8" y2="336.6"/>
<line x1="1056.8" y1="336.6" x2="1044.3" y2="535.0"/>
<line x1="1044.3" y1="535.0" x2="766.2" y2="687.9"/>
<line x1="766.2" y1="687.9" x2="572.0" y2="275.3"/>
<line x1="572.0" y1="275.3" x2="1008.0" y2="592.1"/>
<line x1="1008.0" y1="592.1" x2="1056.8" y2="336.6"/>
<line x1="1056.8" y1="336.6" x2="700.6" y2="671.0"/>
<line x1="700.6" y1="671.0" x2="530.5" y2="403.0"/>
<line x1="530.5" y1="403.0" x2="1044.3" y2="535.0"/>
<line x1="1044.3" y1="535.0" x2="930.1" y2="183.4"/>
<line x1="930.1" y1="183.4" x2="958.7" y2="638.4"/>
<line x1="958.7" y1="638.4" x2="833.8" y2="687.9"/>
<line x1="833.8" y1="687.9" x2="615.2" y2="223.2"/>
<line x1="615.2" y1="223.2" x2="1008.0" y2="592.1"/>
<line x1="1008.0" y1="592.1" x2="1069.5" y2="403.0"/>
<line x1="1069.5" y1="403.0" x2="641.3" y2="638.4"/>
<line x1="641.3" y1="638.4" x2="572.0" y2="275.3"/>
<line x1="572.0" y1="275.3" x2="899.4" y2="671.0"/>
<line x1="899.4" y1="671.0" x2="1065.2" y2="470.6"/>
<line x1="1065.2" y1="470.6" x2="534.8" y2="470.6"/>
<line x1="534.8" y1="470.6" x2="800.0" y2="150.0"/>
<line x1="800.0" y1="150.0" x2="534.8" y2="470.6"/>
<line x1="534.8" y1="470.6" x2="534.8" y2="470.6"/>
<line x1="534.8" y1="470.6" x2="899.4" y2="671.0"/>
<line x1="899.4" y1="671.0" x2="1028.0" y2="275.3"/>
<line x1="1028.0" y1="275.3" x2="641.3" y2="638.4"/>
<line x1="641.3" y1="638.4" x2="530.5" y2="403.0"/>
<line x1="530.5" y1="403.0" x2="1008.0" y2="592.1"/>
<line x1="1008.0" y1="592.1" x2="984.8" y2="223.2"/>
<line x1="984.8" y1="223.2" x2="833.8" y2="687.9"/>
<line x1="833.8" y1="687.9" x2="641.3" y2="638.4"/>
<line x1="641.3" y1="638.4" x2="930.1" y2="183.4"/>
<line x1="930.1" y1="183.4" x2="555.7" y2="535.0"/>
<line x1="555.7" y1="535.0" x2="530.5" y2="403.0"/>
<line x1="530.5" y1="403.0" x2="899.4" y2="671.0"/>
<line x1="899.4" y1="671.0" x2="1056.8" y2="336.6"/>
<line x1="1056.8" y1="336.6" x2="592.0" y2="592.1"/>
<line x1="592.0" y1="592.1" x2="572.0" y2="275.3"/>
<line x1="572.0" y1="275.3" x2="833.8" y2="687.9"/>
<line x1="833.8" y1="687.9" x2="1044.3" y2="535.0"/>
<line x1="1044.3" y1="535.0" x2="543.2" y2="336.6"/>
<line x1="543.2" y1="336.6" x2="984.8" y2="223.2"/>
<line x1="984.8" y1="223.2" x2="669.9" y2="183.4"/>
<line x1="669.9" y1="183.4" x2="867.1" y2="158.5"/>
<line x1="867.1" y1="158.5" x2="732.9" y2="158.5"/>
<line x1="732.9" y1="158.5" x2="800.0" y2="150.0"/>
<line x1="800.0" y1="150.0" x2="732.9" y2="158.5"/>
<line x1="732.9" y1="158.5" x2="732.9" y2="158.5"/>
<line x1="732.9" y1="158.5" x2="669.9" y2="183.4"/>
<line x1="669.9" y1="183.4" x2="615.2" y2="223.2"/>
<line x1="615.2" y1="223.2" x2="543.2" y2="336.6"/>
<line x1="543.2" y1="336.6" x2="555.7" y2="535.0"/>
<line x1="555.7" y1="535.0" x2="833.8" y2="687.9"/>
<line x1="833.8" y1="687.9" x2="1028.0" y2="275.3"/>
<line x1="1028.0" y1="275.3" x2="592.0" y2="592.1"/>
<line x1="592.0" y1="592.1" x2="543.2" y2="336.6"/>
<line x1="543.2" y1="336.6" x2="899.4" y2="671.0"/>
<line x1="899.4" y1="671.0" x2="1069.5" y2="403.0"/>
<line x1="1069.5" y1="403.0" x2="555.7" y2="535.0"/>
<line x1="555.7" y1="535.0" x2="669.9" y2="183.4"/>
<line x1="669.9" y1="183.4" x2="641.3" y2="638.4"/>
<line x1="641.3" y1="638.4" x2="766.2" y2="687.9"/>
<line x1="766.2" y1="687.9" x2="984.8" y2="223.2"/>
<line x1="984.8" y1="223.2" x2="592.0" y2="592.1"/>
<line x1="592.0" y1="592.1" x2="530.5" y2="403.0"/>
<line x1="530.5" y1="403.0" x2="958.7" y2="638.4"/>
<line x1="958.7" y1="638.4" x2="1028.0" y2="275.3"/>
<line x1="1028.0" y1="275.3" x2="700.6" y2="671.0"/>
<line x1="700.6" y1="671.0" x2="534.8" y2="470.6"/>
<line x1="534.8" y1="470.6" x2="1065.2" y2="470.6"/>
<line x1="1065.2" y1="470.6" x2="800.0" y2="150.0"/>
<line x1="800.0" y1="150.0" x2="1065.2" y2="470.6"/>
<line x1="1065.2" y1="470.6" x2="1065.2" y2="470.6"/>
<line x1="1065.2" y1="470.6" x2="700.6" y2="671.0"/>
<line x1="700.6" y1="671.0" x2="572.0" y2="275.3"/>
<line x1="572.0" y1="275.3" x2="958.7" y2="638.4"/>
<line x1="958.7" y1="638.4" x2="1069.5" y2="403.0"/>
<line x1="1069.5" y1="403.0" x2="592.0" y2="592.1"/>
<line x1="592.0" y1="592.1" x2="615.2" y2="223.2"/>
<line x1="615.2" y1="223.2" x2="766.2" y2="687.9"/>
<line x1="766.2" y1="687.9" x2="958.7" y2="638.4"/>
<line x1="958.7" y1="638.4" x2="669.9" y2="183.4"/>
<line x1="669.9" y1="183.4" x2="1044.3" y2="535.0"/>
<line x1="1044.3" y1="535.0" x2="1069.5" y2="403.0"/>
<line x1="1069.5" y1="403.0" x2="700.6" y2="671.0"/>
<line x1="700.6" y1="671.0" x2="543.2" y2="336.6"/>
<line x1="543.2" y1="336.6" x2="1008.0" y2="592.1"/>
<line x1="1008.0" y1="592.1" x2="1028.0" y2="275.3"/>
<line x1="1028.0" y1="275.3" x2="766.2" y2="687.9"/>
<line x1="766.2" y1="687.9" x2="555.7" y2="535.0"/>
<line x1="555.7" y1="535.0" x2="1056.8" y2="336.6"/>
<line x1="1056.8" y1="336.6" x2="615.2" y2="223.2"/>
<line x1="615.2" y1="223.2" x2="930.1" y2="183.4"/>
<line x1="930.1" y1="183.4" x2="732.9" y2="158.5"/>
<line x1="732.9" y1="158.5" x2="867.1" y2="158.5"/></g>
<g><circle cx="800.0" cy="150.0" r="7" fill="#c9c9c9" stroke="#8f8f8f" stroke-width="1.2"/>
<circle cx="867.1" cy="158.5" r="7" fill="#c9c9c9" stroke="#8f8f8f" stroke-width="1.2"/>
<circle cx="930.1" cy="183.4" r="7" fill="#c9c9c9" stroke="#8f8f8f" stroke-width="1.2"/>
<circle cx="984.8" cy="223.2" r="7" fill="#c9c9c9" stroke="#8f8f8f" stroke-width="1.2"/>
<circle cx="1028.0" cy="275.3" r="12" fill="#0a0a0a" stroke="#0a0a0a" stroke-width="1.2"/>
<circle cx="1056.8" cy="336.6" r="7" fill="#c9c9c9" stroke="#8f8f8f" stroke-width="1.2"/>
<circle cx="1069.5" cy="403.0" r="7" fill="#c9c9c9" stroke="#8f8f8f" stroke-width="1.2"/>
<circle cx="1065.2" cy="470.6" r="7" fill="#c9c9c9" stroke="#8f8f8f" stroke-width="1.2"/>
<circle cx="1044.3" cy="535.0" r="7" fill="#c9c9c9" stroke="#8f8f8f" stroke-width="1.2"/>
<circle cx="1008.0" cy="592.1" r="7" fill="#c9c9c9" stroke="#8f8f8f" stroke-width="1.2"/>
<circle cx="958.7" cy="638.4" r="7" fill="#c9c9c9" stroke="#8f8f8f" stroke-width="1.2"/>
<circle cx="899.4" cy="671.0" r="7" fill="#c9c9c9" stroke="#8f8f8f" stroke-width="1.2"/>
<circle cx="833.8" cy="687.9" r="7" fill="#c9c9c9" stroke="#8f8f8f" stroke-width="1.2"/>
<circle cx="766.2" cy="687.9" r="7" fill="#c9c9c9" stroke="#8f8f8f" stroke-width="1.2"/>
<circle cx="700.6" cy="671.0" r="7" fill="#c9c9c9" stroke="#8f8f8f" stroke-width="1.2"/>
<circle cx="641.3" cy="638.4" r="7" fill="#c9c9c9" stroke="#8f8f8f" stroke-width="1.2"/>
<circle cx="592.0" cy="592.1" r="7" fill="#c9c9c9" stroke="#8f8f8f" stroke-width="1.2"/>
<circle cx="555.7" cy="535.0" r="7" fill="#c9c9c9" stroke="#8f8f8f" stroke-width="1.2"/>
<circle cx="534.8" cy="470.6" r="7" fill="#c9c9c9" stroke="#8f8f8f" stroke-width="1.2"/>
<circle cx="530.5" cy="403.0" r="7" fill="#c9c9c9" stroke="#8f8f8f" stroke-width="1.2"/>
<circle cx="543.2" cy="336.6" r="7" fill="#c9c9c9" stroke="#8f8f8f" stroke-width="1.2"/>
<circle cx="572.0" cy="275.3" r="7" fill="#c9c9c9" stroke="#8f8f8f" stroke-width="1.2"/>
<circle cx="615.2" cy="223.2" r="7" fill="#c9c9c9" stroke="#8f8f8f" stroke-width="1.2"/>
<circle cx="669.9" cy="183.4" r="7" fill="#c9c9c9" stroke="#8f8f8f" stroke-width="1.2"/>
<circle cx="732.9" cy="158.5" r="7" fill="#c9c9c9" stroke="#8f8f8f" stroke-width="1.2"/></g>
<line x1="1018.0" y1="293.3" x2="1008.0" y2="337.3" stroke="#111" stroke-width="2"/>
<text x="800" y="795" text-anchor="middle" fill="#696969" font-family="ui-monospace,SFMono-Regular,Menlo,monospace" font-size="16" letter-spacing="2">F(n) mod 25 = 4 · step 72/100</text>
<g transform="translate(715 830)"><rect width="170" height="64" rx="4" fill="#0a0a0a"/><text x="85" y="40" text-anchor="middle" fill="#fff" font-family="Inter,Arial,sans-serif" font-size="16" font-weight="700" letter-spacing="3">Ⅱ  PAUSE</text></g>
</svg>